# xmcd CD database file
#
# Track frame offsets:
#	150
#	9610
#	30460
#	46395
#	64875
#	73047
#	97665
#	112790
#	128820
#	144065
#	169335
#	178225
#	194415
#	216647
#	235222
#	249815
#	265735
#	278637
#	303670
#	317070
#
# Disc length: 4503 seconds
#
# Revision: 0
# Processed by: cddbd v1.4PL0 Copyright (c) Steve Scherf et al.
# Submitted via: CDex 1.50Beta7
#
DISCID=1a119514
DTITLE=Sturm und Drang - A Gypsy Rhapsody
DYEAR=1996
DGENRE=Jazz
TTITLE0=Zingaresque
TTITLE1=Spiel Zigeuner
TTITLE2=Gitano Amoroso
TTITLE3=Pussztareise
TTITLE4=Visite Francaise
TTITLE5=Czàrdàs Gulasch
TTITLE6=Russian Lullaby
TTITLE7=Bulgaresque
TTITLE8=Rakkaren
TTITLE9=Jewish Wedding
TTITLE10=La valse et le violon
TTITLE11=Gypsy Swing
TTITLE12=Stilleben
TTITLE13=Tango Suomalainen
TTITLE14=Ugrisk Polka
TTITLE15=Au revoir, mademoiselle
TTITLE16=Kicsi Magyar
TTITLE17=Russian Rhapsody
TTITLE18=En Falunatt
TTITLE19=Setesdalsfanten
EXTD=YEAR: 1996
EXTT0=
EXTT1=
EXTT2=
EXTT3=
EXTT4=
EXTT5=
EXTT6=
EXTT7=
EXTT8=
EXTT9=
EXTT10=
EXTT11=
EXTT12=
EXTT13=
EXTT14=
EXTT15=
EXTT16=
EXTT17=
EXTT18=
EXTT19=
PLAYORDER=
